<svg xmlns="http://www.w3.org/2000/svg" xmlns:xlink="http://www.w3.org/1999/xlink" version="1.1" x="0px" y="0px" viewBox="0 0 100 125" enable-background="new 0 0 100 100" xml:space="preserve">
  <g>
    <path d="M50,54c-3.86,0-7,3.141-7,7s3.14,7,7,7c3.859,0,7-3.141,7-7S53.859,54,50,54z M50,64c-1.654,0-3-1.346-3-3s1.346-3,3-3   s3,1.346,3,3S51.654,64,50,64z"/>
    <path d="M31,36c-2.206,0-4,1.794-4,4s1.794,4,4,4s4-1.794,4-4S33.206,36,31,36z"/>
    <path d="M69,36c-2.206,0-4,1.794-4,4s1.794,4,4,4s4-1.794,4-4S71.206,36,69,36z"/>
    <path d="M92.902,47.25c-0.04-0.644-0.092-1.284-0.16-1.919c-0.015-0.135-0.035-0.269-0.052-0.404   c-0.076-0.646-0.164-1.289-0.27-1.925c-0.021-0.128-0.046-0.255-0.068-0.383c-0.111-0.64-0.234-1.275-0.374-1.905   c-0.03-0.139-0.063-0.276-0.096-0.415c-0.141-0.608-0.294-1.211-0.46-1.809c-0.046-0.167-0.094-0.333-0.142-0.499   c-0.161-0.552-0.334-1.1-0.516-1.643c-0.07-0.209-0.14-0.418-0.213-0.626c-0.168-0.477-0.348-0.949-0.532-1.418   c-0.103-0.261-0.202-0.524-0.31-0.784c-0.159-0.381-0.33-0.756-0.499-1.132c-0.121-0.269-0.23-0.542-0.356-0.809   C92.689,28.995,95,24.718,95,20c0-7.72-6.28-14-14-14c-4.53,0-8.709,2.168-11.321,5.771c-0.149-0.077-0.305-0.142-0.455-0.218   c-0.469-0.235-0.942-0.46-1.42-0.679c-0.223-0.102-0.444-0.205-0.668-0.302c-0.671-0.293-1.35-0.57-2.037-0.829   c-0.037-0.014-0.073-0.03-0.11-0.043c-1.546-0.577-3.136-1.063-4.761-1.461c-0.099-0.024-0.199-0.046-0.299-0.069   c-0.68-0.161-1.364-0.307-2.056-0.435c-0.167-0.031-0.334-0.06-0.5-0.089c-0.625-0.108-1.254-0.202-1.888-0.283   c-0.2-0.026-0.4-0.054-0.602-0.077c-0.616-0.07-1.236-0.124-1.86-0.167c-0.198-0.014-0.396-0.034-0.595-0.045   C51.624,7.028,50.815,7,50,7s-1.624,0.028-2.429,0.073c-0.199,0.011-0.396,0.031-0.595,0.045c-0.624,0.043-1.245,0.097-1.861,0.167   c-0.201,0.023-0.401,0.051-0.601,0.077c-0.634,0.081-1.263,0.175-1.888,0.284c-0.167,0.029-0.332,0.059-0.498,0.089   c-0.692,0.129-1.379,0.274-2.06,0.436c-0.098,0.023-0.197,0.044-0.295,0.068c-1.626,0.398-3.217,0.884-4.765,1.462   c-0.032,0.012-0.063,0.025-0.095,0.037c-0.694,0.261-1.378,0.541-2.055,0.836c-0.218,0.095-0.434,0.196-0.651,0.295   c-0.485,0.222-0.966,0.45-1.44,0.689c-0.147,0.074-0.299,0.137-0.446,0.213C27.709,8.168,23.53,6,19,6C11.28,6,5,12.28,5,20   c0,4.718,2.311,8.996,6.144,11.578c-0.129,0.272-0.241,0.553-0.364,0.828c-0.167,0.37-0.334,0.738-0.49,1.113   c-0.107,0.258-0.206,0.52-0.308,0.781c-0.187,0.473-0.367,0.949-0.537,1.43c-0.071,0.202-0.138,0.405-0.206,0.608   c-0.185,0.55-0.359,1.104-0.522,1.664C8.67,38.161,8.624,38.32,8.58,38.48c-0.168,0.605-0.323,1.217-0.466,1.833   c-0.03,0.131-0.062,0.261-0.091,0.393c-0.141,0.637-0.266,1.279-0.378,1.927C7.624,42.753,7.6,42.874,7.58,42.996   c-0.106,0.645-0.195,1.294-0.272,1.948c-0.015,0.128-0.035,0.255-0.048,0.383c-0.07,0.639-0.121,1.283-0.162,1.93   c-0.009,0.139-0.024,0.277-0.032,0.416C7.023,48.443,7,49.219,7,50c0,23.71,19.29,43,43,43c23.71,0,43-19.29,43-43   c0-0.781-0.023-1.557-0.065-2.328C92.928,47.531,92.912,47.391,92.902,47.25z M81,10c5.514,0,10,4.486,10,10   c0,3.226-1.529,6.149-4.065,8.013c-0.518-0.866-1.067-1.71-1.643-2.535C86.95,24.18,88,22.186,88,20c0-3.86-3.141-7-7-7   c-2.119,0-4.039,0.962-5.335,2.521c-0.806-0.602-1.64-1.166-2.487-1.711C75.055,11.433,77.906,10,81,10z M80.488,19.711   c-0.239-0.241-0.487-0.473-0.732-0.708c-0.335-0.322-0.658-0.658-1.002-0.968C79.307,17.39,80.116,17,81,17c1.654,0,3,1.346,3,3   c0,0.914-0.427,1.756-1.114,2.311c-0.186-0.221-0.389-0.424-0.578-0.641c-0.284-0.324-0.572-0.645-0.866-0.959   C81.128,20.373,80.812,20.038,80.488,19.711z M9,20c0-5.514,4.486-10,10-10c3.094,0,5.945,1.433,7.822,3.81   c-0.848,0.545-1.682,1.109-2.488,1.711C23.039,13.962,21.119,13,19,13c-3.86,0-7,3.14-7,7c0,2.186,1.049,4.18,2.708,5.478   c-0.575,0.825-1.125,1.669-1.642,2.535C10.53,26.149,9,23.226,9,20z M19.507,19.715c-0.319,0.322-0.629,0.652-0.939,0.984   c-0.302,0.324-0.598,0.654-0.891,0.988c-0.185,0.211-0.382,0.409-0.562,0.624C16.427,21.756,16,20.914,16,20c0-1.654,1.346-3,3-3   c0.883,0,1.693,0.39,2.246,1.035c-0.337,0.304-0.653,0.633-0.981,0.948C20.012,19.226,19.755,19.466,19.507,19.715z M50,88   c-10.477,0-19-8.523-19-19s8.523-19,19-19s19,8.523,19,19S60.477,88,50,88z M65.895,85.601C70.269,81.411,73,75.521,73,69   c0-12.683-10.317-23-23-23c-12.682,0-23,10.317-23,23c0,6.521,2.732,12.411,7.105,16.601C20.504,79.504,11,65.846,11,50   c0-0.749,0.026-1.496,0.069-2.242c0.01-0.18,0.028-0.357,0.041-0.536c0.042-0.584,0.093-1.168,0.162-1.75   c0.02-0.172,0.043-0.344,0.066-0.516c0.08-0.612,0.173-1.223,0.282-1.83c0.022-0.125,0.044-0.25,0.067-0.375   c0.136-0.72,0.289-1.437,0.465-2.147c0.002-0.01,0.005-0.021,0.007-0.032c0.364-1.464,0.818-2.904,1.349-4.315   c0.08-0.211,0.165-0.419,0.248-0.629c0.175-0.441,0.358-0.878,0.549-1.312c0.126-0.287,0.254-0.573,0.388-0.857   c0.161-0.343,0.331-0.681,0.502-1.02c1.259-2.485,2.772-4.82,4.513-6.965c0.136-0.168,0.273-0.334,0.412-0.5   c0.294-0.351,0.593-0.697,0.898-1.037c0.102-0.114,0.207-0.226,0.31-0.338c0.354-0.385,0.713-0.765,1.083-1.135   c0.028-0.028,0.057-0.056,0.085-0.084c2.511-2.5,5.363-4.655,8.474-6.401c0.512-0.287,1.03-0.562,1.554-0.826   c0.146-0.074,0.29-0.152,0.438-0.225c0.7-0.34,1.41-0.66,2.128-0.958c0.099-0.041,0.201-0.078,0.3-0.119   c0.646-0.261,1.299-0.506,1.959-0.732c0.125-0.043,0.25-0.086,0.375-0.127c0.74-0.246,1.486-0.474,2.239-0.675   c0.001,0,0.002-0.001,0.004-0.001c0.812-0.216,1.632-0.406,2.458-0.57c0.011-0.002,0.022-0.004,0.033-0.006   c0.743-0.147,1.493-0.266,2.244-0.369c0.173-0.024,0.347-0.045,0.521-0.067c0.612-0.075,1.226-0.134,1.842-0.181   c0.197-0.015,0.393-0.034,0.59-0.045C48.436,11.03,49.217,11,50,11s1.564,0.03,2.344,0.077c0.198,0.012,0.395,0.03,0.591,0.045   c0.616,0.046,1.23,0.105,1.842,0.181c0.174,0.021,0.349,0.043,0.521,0.067c0.752,0.103,1.501,0.222,2.244,0.369   c0.011,0.002,0.022,0.003,0.033,0.006c0.825,0.164,1.645,0.354,2.457,0.57c0.002,0,0.003,0.001,0.005,0.001   c0.753,0.201,1.499,0.429,2.238,0.675c0.126,0.042,0.251,0.084,0.376,0.127c0.659,0.226,1.312,0.471,1.959,0.732   c0.1,0.041,0.201,0.078,0.301,0.119c0.718,0.297,1.428,0.617,2.128,0.958c0.147,0.072,0.291,0.151,0.438,0.225   c0.523,0.263,1.042,0.539,1.554,0.826c3.109,1.746,5.959,3.899,8.469,6.397c0.03,0.03,0.062,0.06,0.092,0.09   c0.371,0.372,0.731,0.753,1.087,1.14c0.1,0.108,0.199,0.216,0.298,0.325c0.312,0.347,0.617,0.701,0.918,1.059   c0.129,0.154,0.256,0.309,0.383,0.465c1.753,2.157,3.275,4.507,4.541,7.009c0.164,0.327,0.329,0.653,0.484,0.984   c0.137,0.292,0.269,0.585,0.398,0.881c0.187,0.425,0.366,0.853,0.537,1.284c0.086,0.217,0.175,0.433,0.257,0.652   c0.529,1.408,0.982,2.844,1.346,4.304c0.004,0.016,0.007,0.033,0.011,0.048c0.175,0.706,0.327,1.417,0.462,2.131   c0.024,0.128,0.046,0.257,0.069,0.385c0.108,0.605,0.201,1.213,0.28,1.823c0.022,0.173,0.047,0.346,0.066,0.52   c0.068,0.581,0.119,1.165,0.161,1.749c0.013,0.18,0.031,0.357,0.041,0.537C88.975,48.504,89,49.251,89,50   C89,65.845,79.496,79.503,65.895,85.601z"/>
  </g>
</svg>
